<?xml version="1.0" encoding="UTF-8" standalone="no" ?>
<!DOCTYPE svg PUBLIC "-//W3C//DTD SVG 1.1//EN" "http://www.w3.org/Graphics/SVG/1.1/DTD/svg11.dtd">
<svg xmlns="http://www.w3.org/2000/svg" xmlns:xlink="http://www.w3.org/1999/xlink" version="1.1" width="1080" height="1080" viewBox="0 0 1080 1080" xml:space="preserve">
<desc>Created with Fabric.js 5.2.4</desc>
<defs>
</defs>
<rect x="0" y="0" width="100%" height="100%" fill="transparent"></rect>
<g transform="matrix(0 0 0 0 0 0)" id="30d25c52-f288-4d12-83a7-0fed7f6788b5"  >
</g>
<g transform="matrix(1 0 0 1 540 540)" id="c489b6a0-8d12-41d2-b60c-0599a6750b31"  >
<rect style="stroke: none; stroke-width: 1; stroke-dasharray: none; stroke-linecap: butt; stroke-dashoffset: 0; stroke-linejoin: miter; stroke-miterlimit: 4; fill: rgb(255,255,255); fill-rule: nonzero; opacity: 1; visibility: hidden;" vector-effect="non-scaling-stroke"  x="-540" y="-540" rx="0" ry="0" width="1080" height="1080" />
</g>
<g transform="matrix(1.96 0 0 1.96 540 540)" id="96b8d582-b8bc-4338-975b-0c8ac28dad70"  >
<path style="stroke: rgb(0,0,0); stroke-width: 0; stroke-dasharray: none; stroke-linecap: butt; stroke-dashoffset: 0; stroke-linejoin: miter; stroke-miterlimit: 4; fill: rgb(255,255,255); fill-rule: nonzero; opacity: 1;" vector-effect="non-scaling-stroke"  transform=" translate(-159.85, -256)" d="M 80 299.3 L 80 512 L 196 512 L 196 299.3 L 282.5 299.3 L 300.5 201.5 L 196 201.5 L 196 166.9 C 196 115.2 216.3 95.4 268.7 95.4 C 285 95.4 298.09999999999997 95.80000000000001 305.7 96.60000000000001 L 305.7 7.9 C 291.4 4 256.4 0 236.2 0 C 129.3 0 80 50.5 80 159.4 L 80 201.5 L 14 201.5 L 14 299.3 L 80 299.3 z" stroke-linecap="round" />
</g>
</svg>