<?xml version="1.0" encoding="UTF-8" standalone="no" ?>
<!DOCTYPE svg PUBLIC "-//W3C//DTD SVG 1.1//EN" "http://www.w3.org/Graphics/SVG/1.1/DTD/svg11.dtd">
<svg xmlns="http://www.w3.org/2000/svg" xmlns:xlink="http://www.w3.org/1999/xlink" version="1.1" width="1080" height="1080" viewBox="0 0 1080 1080" xml:space="preserve">
<desc>Created with Fabric.js 5.2.4</desc>
<defs>
</defs>
<rect x="0" y="0" width="100%" height="100%" fill="transparent"></rect>
<g transform="matrix(1 0 0 1 540 540)" id="c489b6a0-8d12-41d2-b60c-0599a6750b31"  >
<rect style="stroke: none; stroke-width: 1; stroke-dasharray: none; stroke-linecap: butt; stroke-dashoffset: 0; stroke-linejoin: miter; stroke-miterlimit: 4; fill: rgb(255,255,255); fill-rule: nonzero; opacity: 1; visibility: hidden;" vector-effect="non-scaling-stroke"  x="-540" y="-540" rx="0" ry="0" width="1080" height="1080" />
</g>
<g transform="matrix(0 0 0 0 0 0)" id="30d25c52-f288-4d12-83a7-0fed7f6788b5"  >
</g>
<g transform="matrix(1.97 0 0 1.97 540 540)" id="df415602-73eb-4b73-a898-e31f5d9899d7"  >
<path style="stroke: rgb(0,0,0); stroke-width: 0; stroke-dasharray: none; stroke-linecap: butt; stroke-dashoffset: 0; stroke-linejoin: miter; stroke-miterlimit: 4; fill: rgb(255,255,255); fill-rule: nonzero; opacity: 1;" vector-effect="non-scaling-stroke"  transform=" translate(-288, -256)" d="M 549.7 124.1 C 543.4000000000001 100.39999999999999 524.9000000000001 81.8 501.40000000000003 75.5 C 458.8 64 288 64 288 64 C 288 64 117.2 64 74.6 75.5 C 51.099999999999994 81.8 32.599999999999994 100.4 26.299999999999997 124.1 C 14.899999999999997 167 14.899999999999997 256.4 14.899999999999997 256.4 C 14.899999999999997 256.4 14.899999999999997 345.79999999999995 26.299999999999997 388.7 C 32.599999999999994 412.4 51.099999999999994 430.2 74.6 436.5 C 117.2 448 288 448 288 448 C 288 448 458.8 448 501.4 436.5 C 524.9 430.2 543.4 412.3 549.6999999999999 388.7 C 561.0999999999999 345.8 561.0999999999999 256.4 561.0999999999999 256.4 C 561.0999999999999 256.4 561.0999999999999 166.99999999999997 549.6999999999999 124.09999999999997 z M 232.20000000000005 337.6 L 232.20000000000005 175.2 L 374.90000000000003 256.4 L 232.20000000000005 337.59999999999997 z" stroke-linecap="round" />
</g>
<g transform="matrix(0 4.34 -4.26 0 570.55 539.02)" id="206121d0-351c-435a-b24c-27af01032163"  >
<polygon style="stroke: rgb(7,6,6); stroke-width: 0; stroke-dasharray: none; stroke-linecap: butt; stroke-dashoffset: 0; stroke-linejoin: miter; stroke-miterlimit: 4; fill: rgb(255,24,24); fill-rule: nonzero; opacity: 1;" vector-effect="non-scaling-stroke"  points="-37.43,32.41 0,-32.41 37.43,32.41 " />
</g>
</svg>